{
  "accessors": [
    {
      "bufferView": 2,
      "componentType": 5126,
      "count": 1981,
      "max": [
        79.0810546875,
        212.19703674316406,
        132.7897491455078
      ],
      "min": [
        -79.08103942871094,
        -215.43814086914063,
        -12.669698715209961
      ],
      "type": "VEC3"
    },
    {
      "bufferView": 2,
      "byteOffset": 23772,
      "componentType": 5126,
      "count": 1981,
      "max": [
        1.0,
        1.0,
        1.0
      ],
      "min": [
        -1.0,
        -1.0,
        -1.0
      ],
      "type": "VEC3"
    },
    {
      "bufferView": 1,
      "componentType": 5126,
      "count": 1981,
      "max": [
        0.9939826130867004,
        0.9913080930709839
      ],
      "min": [
        0.00363023579120636,
        0.006828537210822105
      ],
      "type": "VEC2"
    },
    {
      "bufferView": 1,
      "byteOffset": 15848,
      "componentType": 5126,
      "count": 1981,
      "max": [
        0.9939826130867004,
        0.9913080930709839
      ],
      "min": [
        0.00363023579120636,
        0.006828537210822105
      ],
      "type": "VEC2"
    },
    {
      "bufferView": 0,
      "componentType": 5125,
      "count": 5076,
      "type": "SCALAR"
    },
    {
      "bufferView": 2,
      "byteOffset": 47544,
      "componentType": 5126,
      "count": 4410,
      "max": [
        94.56306457519531,
        223.4423065185547,
        88.95487976074219
      ],
      "min": [
        -94.5631103515625,
        -229.167724609375,
        -79.55720520019531
      ],
      "type": "VEC3"
    },
    {
      "bufferView": 2,
      "byteOffset": 100464,
      "componentType": 5126,
      "count": 4410,
      "max": [
        1.0,
        1.0,
        1.0
      ],
      "min": [
        -1.0,
        -1.0,
        -1.0
      ],
      "type": "VEC3"
    },
    {
      "bufferView": 1,
      "byteOffset": 31696,
      "componentType": 5126,
      "count": 4410,
      "max": [
        0.997271716594696,
        0.9985029697418213
      ],
      "min": [
        0.005785491317510605,
        0.005684067029505968
      ],
      "type": "VEC2"
    },
    {
      "bufferView": 1,
      "byteOffset": 66976,
      "componentType": 5126,
      "count": 4410,
      "max": [
        0.997271716594696,
        0.9985029697418213
      ],
      "min": [
        0.005785491317510605,
        0.005684067029505968
      ],
      "type": "VEC2"
    },
    {
      "bufferView": 0,
      "byteOffset": 20304,
      "componentType": 5125,
      "count": 12174,
      "type": "SCALAR"
    },
    {
      "bufferView": 2,
      "byteOffset": 153384,
      "componentType": 5126,
      "count": 4842,
      "max": [
        37.529998779296875,
        193.39483642578125,
        73.22051239013672
      ],
      "min": [
        -183.8600616455078,
        -266.44622802734375,
        -97.44441986083984
      ],
      "type": "VEC3"
    },
    {
      "bufferView": 2,
      "byteOffset": 211488,
      "componentType": 5126,
      "count": 4842,
      "max": [
        1.0,
        1.0,
        1.0
      ],
      "min": [
        -1.0,
        -1.0,
        -1.0
      ],
      "type": "VEC3"
    },
    {
      "bufferView": 1,
      "byteOffset": 102256,
      "componentType": 5126,
      "count": 4842,
      "max": [
        0.9958792924880981,
        0.9981130957603455
      ],
      "min": [
        0.0010126084089279175,
        0.0046139732003211975
      ],
      "type": "VEC2"
    },
    {
      "bufferView": 1,
      "byteOffset": 140992,
      "componentType": 5126,
      "count": 4842,
      "max": [
        0.9958792924880981,
        0.9981130957603455
      ],
      "min": [
        0.0010126084089279175,
        0.0046139732003211975
      ],
      "type": "VEC2"
    },
    {
      "bufferView": 0,
      "byteOffset": 69000,
      "componentType": 5125,
      "count": 12228,
      "type": "SCALAR"
    }
  ],
  "asset": {
    "extras": {
      "author": "seangorman (https://sketchfab.com/seangorman)",
      "license": "CC-BY-4.0 (http://creativecommons.org/licenses/by/4.0/)",
      "source": "https://sketchfab.com/3d-models/zombie-pickup-truck-23708528454e43b58e02d78fd427c240",
      "title": "ZOMBIE PICKUP TRUCK"
    },
    "generator": "Sketchfab-12.66.0",
    "version": "2.0"
  },
  "bufferViews": [
    {
      "buffer": 0,
      "byteLength": 117912,
      "name": "floatBufferViews",
      "target": 34963
    },
    {
      "buffer": 0,
      "byteLength": 179728,
      "byteOffset": 117912,
      "byteStride": 8,
      "name": "floatBufferViews",
      "target": 34962
    },
    {
      "buffer": 0,
      "byteLength": 269592,
      "byteOffset": 297640,
      "byteStride": 12,
      "name": "floatBufferViews",
      "target": 34962
    }
  ],
  "buffers": [
    {
      "byteLength": 567232,
      "uri": "scene.bin"
    }
  ],
  "images": [
    {
      "uri": "textures/03_-_Default_baseColor.png"
    },
    {
      "uri": "textures/02-_Default_baseColor.png"
    },
    {
      "uri": "textures/13_-_Default_baseColor.png"
    }
  ],
  "materials": [
    {
      "doubleSided": true,
      "name": "03_-_Default",
      "pbrMetallicRoughness": {
        "baseColorTexture": {
          "index": 0
        },
        "metallicFactor": 0.0,
        "roughnessFactor": 0.6
      }
    },
    {
      "doubleSided": true,
      "name": "02-_Default",
      "pbrMetallicRoughness": {
        "baseColorTexture": {
          "index": 1
        },
        "metallicFactor": 0.0,
        "roughnessFactor": 0.6
      }
    },
    {
      "doubleSided": true,
      "name": "13_-_Default",
      "pbrMetallicRoughness": {
        "baseColorTexture": {
          "index": 2
        },
        "metallicFactor": 0.0,
        "roughnessFactor": 0.6
      }
    }
  ],
  "meshes": [
    {
      "name": "Object_0",
      "primitives": [
        {
          "attributes": {
            "NORMAL": 1,
            "POSITION": 0,
            "TEXCOORD_0": 2,
            "TEXCOORD_1": 3
          },
          "indices": 4,
          "material": 0,
          "mode": 4
        }
      ]
    },
    {
      "name": "Object_1",
      "primitives": [
        {
          "attributes": {
            "NORMAL": 6,
            "POSITION": 5,
            "TEXCOORD_0": 7,
            "TEXCOORD_1": 8
          },
          "indices": 9,
          "material": 1,
          "mode": 4
        }
      ]
    },
    {
      "name": "Object_2",
      "primitives": [
        {
          "attributes": {
            "NORMAL": 11,
            "POSITION": 10,
            "TEXCOORD_0": 12,
            "TEXCOORD_1": 13
          },
          "indices": 14,
          "material": 2,
          "mode": 4
        }
      ]
    }
  ],
  "nodes": [
    {
      "children": [
        1
      ],
      "matrix": [
        1.0,
        0.0,
        0.0,
        0.0,
        0.0,
        2.220446049250313e-16,
        -1.0,
        0.0,
        0.0,
        1.0,
        2.220446049250313e-16,
        0.0,
        0.0,
        0.0,
        0.0,
        1.0
      ],
      "name": "Sketchfab_model"
    },
    {
      "children": [
        2
      ],
      "matrix": [
        1.0,
        0.0,
        0.0,
        0.0,
        0.0,
        0.0,
        1.0,
        0.0,
        0.0,
        -1.0,
        0.0,
        0.0,
        0.0,
        0.0,
        0.0,
        1.0
      ],
      "name": "50282aa011c547ebbe143ab74cb82014.fbx"
    },
    {
      "children": [
        3
      ],
      "name": "Object_2"
    },
    {
      "children": [
        4,
        5,
        6,
        8,
        10,
        11,
        12,
        13,
        14,
        15,
        16,
        17,
        18,
        19,
        20,
        21,
        22,
        24,
        25,
        26,
        27,
        28
      ],
      "name": "RootNode"
    },
    {
      "name": "cryExporterSettingsNode",
      "rotation": [
        -0.7071068286895752,
        -0.0,
        0.0,
        0.7071068286895752
      ]
    },
    {
      "name": "cryAnimationExportNode",
      "rotation": [
        -0.7071068286895752,
        -0.0,
        0.0,
        0.7071068286895752
      ],
      "translation": [
        0.0,
        0.0,
        -0.7275390625
      ]
    },
    {
      "children": [
        7
      ],
      "name": "Chassis",
      "rotation": [
        -0.7071068286895752,
        -0.0,
        0.0,
        0.7071068286895752
      ],
      "translation": [
        -0.014237523078918457,
        35.851158142089844,
        -7.894868850708008
      ]
    },
    {
      "mesh": 0,
      "name": "Object_7"
    },
    {
      "children": [
        9
      ],
      "name": "CarBody",
      "rotation": [
        -0.7071068286895752,
        -0.0,
        0.0,
        0.7071068286895752
      ],
      "translation": [
        0.0,
        80.50228881835938,
        -6.5490875244140625
      ]
    },
    {
      "mesh": 1,
      "name": "Object_9"
    },
    {
      "name": "Camera001",
      "rotation": [
        -0.05185054987668991,
        0.3788490295410156,
        0.021264754235744476,
        0.9237601161003113
      ],
      "translation": [
        571.90234375,
        181.46546936035156,
        613.4290161132813
      ]
    },
    {
      "name": "Camera001.Target",
      "rotation": [
        -0.7071068286895752,
        -0.0,
        0.0,
        0.7071068286895752
      ],
      "translation": [
        221.68893432617188,
        125.2952880859375,
        258.2746887207031
      ]
    },
    {
      "name": "Birth 001",
      "rotation": [
        -0.7071068286895752,
        -0.0,
        0.0,
        0.7071068286895752
      ]
    },
    {
      "name": "Position Icon 001",
      "rotation": [
        -0.7071068286895752,
        -0.0,
        0.0,
        0.7071068286895752
      ]
    },
    {
      "name": "Speed 001",
      "rotation": [
        -0.7071068286895752,
        -0.0,
        0.0,
        0.7071068286895752
      ]
    },
    {
      "name": "Rotation 001",
      "rotation": [
        -0.7071068286895752,
        -0.0,
        0.0,
        0.7071068286895752
      ]
    },
    {
      "name": "Shape 001",
      "rotation": [
        -0.7071068286895752,
        -0.0,
        0.0,
        0.7071068286895752
      ]
    },
    {
      "name": "Render 001",
      "rotation": [
        -0.7071068286895752,
        -0.0,
        0.0,
        0.7071068286895752
      ]
    },
    {
      "name": "Display 001",
      "rotation": [
        -0.7071068286895752,
        -0.0,
        0.0,
        0.7071068286895752
      ]
    },
    {
      "name": "Event 001",
      "rotation": [
        -0.7071068286895752,
        -0.0,
        0.0,
        0.7071068286895752
      ]
    },
    {
      "name": "Event 002",
      "rotation": [
        -0.7071068286895752,
        -0.0,
        0.0,
        0.7071068286895752
      ]
    },
    {
      "name": "Display 002",
      "rotation": [
        -0.7071068286895752,
        -0.0,
        0.0,
        0.7071068286895752
      ]
    },
    {
      "children": [
        23
      ],
      "name": "Zomb_Mod",
      "rotation": [
        -0.7071068286895752,
        -0.0,
        0.0,
        0.7071068286895752
      ],
      "translation": [
        68.12401580810547,
        138.65061950683594,
        -34.10090637207031
      ]
    },
    {
      "mesh": 2,
      "name": "Object_23"
    },
    {
      "name": "Sky001",
      "rotation": [
        -0.7071068286895752,
        -0.0,
        0.0,
        0.7071068286895752
      ],
      "translation": [
        98.53598022460938,
        0.0,
        -226.13482666015625
      ]
    },
    {
      "name": "Camera002",
      "rotation": [
        -0.04706281051039696,
        -0.38530048727989197,
        -0.019680611789226532,
        0.9213801026344299
      ],
      "translation": [
        -573.80712890625,
        172.64219665527344,
        607.4815673828125
      ]
    },
    {
      "name": "Camera002.Target",
      "rotation": [
        -0.7071068286895752,
        -0.0,
        0.0,
        0.7071068286895752
      ],
      "translation": [
        -109.62728881835938,
        105.85552215576172,
        149.53314208984375
      ]
    },
    {
      "name": "Camera003",
      "rotation": [
        -0.03030027262866497,
        0.9613820314407349,
        0.11805032938718796,
        0.2467603236436844
      ],
      "translation": [
        368.6575927734375,
        240.15280151367188,
        -665.044189453125
      ]
    },
    {
      "name": "Camera003.Target",
      "rotation": [
        -0.7071068286895752,
        -0.0,
        0.0,
        0.7071068286895752
      ],
      "translation": [
        91.74140930175781,
        96.7865219116211,
        -161.14772033691406
      ]
    }
  ],
  "samplers": [
    {
      "magFilter": 9729,
      "minFilter": 9987,
      "wrapS": 10497,
      "wrapT": 10497
    }
  ],
  "scene": 0,
  "scenes": [
    {
      "name": "Sketchfab_Scene",
      "nodes": [
        0
      ]
    }
  ],
  "textures": [
    {
      "sampler": 0,
      "source": 0
    },
    {
      "sampler": 0,
      "source": 1
    },
    {
      "sampler": 0,
      "source": 2
    }
  ]
}
